<?xml version="1.0" encoding="utf-8"?>
<!-- Generator: Adobe Illustrator 16.0.4, SVG Export Plug-In . SVG Version: 6.00 Build 0)  -->
<!DOCTYPE svg PUBLIC "-//W3C//DTD SVG 1.1//EN" "http://www.w3.org/Graphics/SVG/1.1/DTD/svg11.dtd">
<svg version="1.1" id="Layer_1" xmlns="http://www.w3.org/2000/svg" xmlns:xlink="http://www.w3.org/1999/xlink" x="0px" y="0px"
	 width="813.737px" height="319.762px" viewBox="0 0 813.737 319.762" enable-background="new 0 0 813.737 319.762"
	 xml:space="preserve">
<g>
	<g>
		<path fill="#FFFFFF" d="M64.617,76.101c113.681,106.85,323.428,8.393,434.119,61.684C425.205,82.186,267.414,88.53,239.143,0.181
			C238.947,0.061,238.846,0,238.846,0L63.304,74.854L64.617,76.101z"/>
		<g>
			<path fill="#FFFFFF" d="M553.132,53.155c35.161,0,64.27,3.275,88.989,10.012c25.4,6.923,46.793,17.536,65.025,32.29
				l-154.399,65.839c-22.326-51.201-86.569-69.924-148.803-88.058c-14.053-4.095-28.27-8.237-42.006-12.77
				c7.507,0.417,15.399,0.624,23.703,0.624c26.003,0,52.848-1.884,81.269-3.879C495.328,55.218,524.712,53.155,553.132,53.155
				 M288.046,35.166c73.53,55.598,231.321,49.254,259.594,137.598c0.194,0.121,0.295,0.186,0.295,0.186l175.541-74.854l-1.312-1.246
				C676.938,54.341,616.48,44.323,553.132,44.323c-56.408,0-115.128,7.936-167.491,7.936
				C348.995,52.259,315.489,48.376,288.046,35.166L288.046,35.166z"/>
		</g>
	</g>
	<g>
		<g>
			<path fill="none" stroke="#FFFFFF" stroke-width="8.8323" d="M125.564,249.343L97.012,268.64H48.188
				c-16.906,0-29.199-3.614-36.882-10.842c-7.686-7.229-8.94-16.304-3.77-27.234c5.171-10.926,14.843-19.78,29.02-26.558
				c14.175-6.777,29.85-10.167,47.025-10.167h68.245l-28.601,19.398H74.401c-8.273,0-15.916,1.714-22.93,5.136
				c-7.015,3.424-11.782,7.799-14.303,13.124c-2.486,5.257-1.818,9.546,2.006,12.864c3.824,3.321,9.871,4.981,18.145,4.981H125.564z
				"/>
			<path fill="none" stroke="#FFFFFF" stroke-width="8.8323" d="M242.399,268.64h-30.076l13.204-27.909h-57.858l-13.204,27.909
				h-30.209l35.392-74.8h30.21l-13.009,27.491h57.858l13.009-27.491h30.076L242.399,268.64z"/>
			<path fill="none" stroke="#FFFFFF" stroke-width="8.8323" d="M296.479,268.64l27.386-19.4h40.597l-12.507-26.872L286.23,268.64
				h-37.358l93.775-66.5c3.023-2.212,6.682-4.151,10.975-5.812c4.716-1.796,8.871-2.695,12.47-2.695
				c3.685,0,6.993,0.899,9.919,2.695c2.57,1.591,4.353,3.528,5.343,5.812l29.359,66.5H296.479z"/>
			<path fill="none" stroke="#FFFFFF" stroke-width="8.8323" d="M559.744,268.64h-43.832l-20.514-18.779h-41.54l-8.886,18.779
				h-30.213l18.066-38.179h83.889c5.123,0,9.626-0.587,13.511-1.764c4.945-1.52,8.121-3.769,9.531-6.743
				c2.747-5.809-2.217-8.716-14.896-8.716h-83.889l28.873-19.398h61.363c15.194,0,26.467,2.214,33.812,6.637
				c8.22,5.05,10.126,12.244,5.706,21.583c-2.489,5.257-6.875,10.01-13.154,14.264c-6.285,4.252-13.744,7.521-22.376,9.803
				L559.744,268.64z"/>
			<path fill="none" stroke="#FFFFFF" stroke-width="8.8323" d="M677.713,249.343l-28.688,19.297h-85.912l35.394-74.8h30.077
				l-26.265,55.503H677.713z"/>
			<path fill="none" stroke="#FFFFFF" stroke-width="8.8323" d="M798.114,193.84l-81.384,50.005l-11.732,24.795h-30.21l11.78-24.898
				l-35.864-49.902h38.572l22.028,30.396l48.37-30.396H798.114z"/>
		</g>
		<g>
			<path fill="#FFFFFF" d="M209.541,319.762v-22.469h18.972c3.286,0,4.928,1.464,4.928,4.388v2.592c0,2.256-1.307,3.541-3.921,3.86
				c2.72,0.282,4.081,1.733,4.081,4.354v2.868c0,2.938-2.173,4.407-6.519,4.407H209.541z M229.202,304.532v-2.078
				c0-1.217-0.795-1.822-2.385-1.822h-13.036v5.669h13.036c0.883,0,1.502-0.112,1.856-0.336
				C229.025,305.74,229.202,305.261,229.202,304.532z M213.781,309.64v6.782h13.036c0.955,0,1.618-0.182,1.988-0.553
				c0.371-0.366,0.556-1.023,0.556-1.971v-1.733c0-1.685-0.848-2.525-2.544-2.525H213.781z"/>
			<path fill="#FFFFFF" d="M248.332,319.762v-22.469h22.628v3.338h-18.389v5.776h11.076v3.338h-11.076v6.732h18.601v3.284H248.332z"
				/>
			<path fill="#FFFFFF" d="M304.24,300.631h-15.739v5.776h14.414c2.12,0,3.559,0.371,4.319,1.117c0.759,0.746,1.14,2.146,1.14,4.203
				v2.715c0,2.057-0.38,3.458-1.14,4.202c-0.76,0.744-2.199,1.117-4.319,1.117h-13.672c-2.155,0-3.613-0.364-4.372-1.096
				c-0.76-0.73-1.139-2.115-1.139-4.15v-0.637l3.868-0.795v3.338h16.958v-6.357H290.09c-2.12,0-3.559-0.37-4.319-1.112
				s-1.139-2.139-1.139-4.188v-2.12c0-2.085,0.378-3.497,1.139-4.239c0.76-0.741,2.2-1.112,4.319-1.112h12.506
				c2.014,0,3.435,0.352,4.267,1.059c0.829,0.707,1.245,1.997,1.245,3.868v0.531l-3.868,0.85V300.631z"/>
			<path fill="#FFFFFF" d="M334.287,300.631v19.131h-4.239v-19.131h-10.599v-3.338h25.49v3.338H334.287z"/>
			<path fill="#FFFFFF" d="M381.185,302.645c0-2.048,0.389-3.452,1.167-4.213c0.776-0.759,2.226-1.139,4.345-1.139h16.217
				c2.12,0,3.568,0.38,4.345,1.139c0.777,0.761,1.166,2.165,1.166,4.213v11.819c0,2.048-0.389,3.443-1.166,4.186
				c-0.777,0.741-2.226,1.112-4.345,1.112h-16.217c-2.155,0-3.613-0.362-4.372-1.087c-0.76-0.723-1.14-2.128-1.14-4.211V302.645z
				 M385.425,316.422h18.759v-15.791h-18.759V316.422z"/>
			<path fill="#FFFFFF" d="M423.58,319.762v-22.469h22.362v3.338h-18.123v6.941h10.228v3.286h-10.228v8.903H423.58z"/>
			<path fill="#FFFFFF" d="M479.118,319.762l12.983-22.469h3.867l13.303,22.469h-4.609l-2.916-5.246h-15.527l-2.861,5.246H479.118z
				 M488.019,311.284h11.924l-5.988-10.706L488.019,311.284z"/>
			<path fill="#FFFFFF" d="M525.432,319.762h-4.239v-22.415h4.239V319.762z"/>
			<path fill="#FFFFFF" d="M541.011,319.762v-22.469h18.113c3.152,0,4.729,1.449,4.729,4.345v5.033c0,2.863-1.577,4.295-4.729,4.295
				h-2.974l9.908,8.796h-5.669l-8.97-8.796h-6.167v8.796H541.011z M557.229,300.631h-11.976v7.209h11.976
				c1.13,0,1.835-0.264,2.12-0.79c0.177-0.316,0.265-0.806,0.265-1.475v-2.683C559.614,301.386,558.819,300.631,557.229,300.631z"/>
		</g>
	</g>
</g>
</svg>
